Coordinates
version=1
nRows=15
nColumns=27
inDegrees=yes

Units are S.I. units (second, meters, Newtons, ...)
If the header above contains a line with 'inDegrees', this indicates whether rotational values are in degrees (yes) or radians (no).

endheader
time	pelvis_rotation	pelvis_tilt	pelvis_list	pelvis_tx	pelvis_ty	pelvis_tz	hip_flexion_r	hip_adduction_r	hip_rotation_r	knee_angle_r	knee_rotation_r	knee_adduction_r	knee_angle_r_beta	ankle_angle_r	subtalar_angle_r	mtp_angle_r	hip_flexion_l	hip_adduction_l	hip_rotation_l	knee_angle_l	knee_rotation_l	knee_adduction_l	knee_angle_l_beta	ankle_angle_l	subtalar_angle_l	mtp_angle_l
      3.27500000	     10.03853586	    -39.95547478	      7.21993645	     -0.04990592	      0.53967605	     -1.18535194	    126.39638899	    -48.37392594	     16.75030908	     95.88699565	      0.00000000	      9.90319564	      1.67354378	     11.45221663	      0.00000000	      0.00000000	    117.40570265	    -32.64171020	      2.76519006	     90.40194381	      0.00000000	     -9.93693704	      1.57781157	      7.41151466	      0.00000000	      0.00000000
      3.28000000	      9.90103080	    -39.88273160	      7.13070451	     -0.04965932	      0.53817381	     -1.18531267	    126.53257303	    -48.29492793	     16.90265863	     96.12597091	      0.00000000	      9.90370962	      1.67771469	     11.49883973	      0.00000000	      0.00000000	    117.58940316	    -32.78390035	      2.97160396	     90.66091225	      0.00000000	     -9.93721719	      1.58233142	      7.49387849	      0.00000000	      0.00000000
      3.28500000	      9.97769009	    -39.87705684	      7.10956947	     -0.04954428	      0.53659331	     -1.18536880	    126.83725024	    -48.38541170	     17.14808033	     96.36268398	      0.00000000	      9.90413304	      1.68184611	     11.52114303	      0.00000000	      0.00000000	    117.87048647	    -32.68969675	      3.19809353	     90.91596296	      0.00000000	     -9.93731269	      1.58678290	      7.58067006	      0.00000000	      0.00000000
      3.29000000	      9.94164019	    -39.82569186	      7.03651810	     -0.04933836	      0.53503214	     -1.18538381	    127.01423637	    -48.39400855	     17.32484923	     96.59791049	      0.00000000	      9.90457391	      1.68595159	     11.58259522	      0.00000000	      0.00000000	    118.10444621	    -32.70971087	      3.43098850	     91.18027415	      0.00000000	     -9.93743997	      1.59139600	      7.67093098	      0.00000000	      0.00000000
      3.29500000	      9.90902035	    -39.74767743	      6.97749543	     -0.04910994	      0.53345695	     -1.18539793	    127.19765496	    -48.40846101	     17.52508500	     96.84042078	      0.00000000	      9.90498578	      1.69018419	     11.62869490	      0.00000000	      0.00000000	    118.29763671	    -32.72312389	      3.65760260	     91.44255723	      0.00000000	     -9.93760999	      1.59597370	      7.76930984	      0.00000000	      0.00000000
      3.30000000	      9.80752891	    -39.68673586	      6.92790363	     -0.04892335	      0.53188466	     -1.18540888	    127.39753800	    -48.32407605	     17.74136770	     97.07751685	      0.00000000	      9.90529059	      1.69432230	     11.67025691	      0.00000000	      0.00000000	    118.48645692	    -32.81689608	      3.85210422	     91.70526886	      0.00000000	     -9.93779590	      1.60055888	      7.85920798	      0.00000000	      0.00000000
      3.30500000	      9.85318542	    -39.60080085	      6.86154910	     -0.04866585	      0.53029684	     -1.18546563	    127.57132444	    -48.43702789	     17.93460667	     97.31737080	      0.00000000	      9.90578273	      1.69850854	     11.70833081	      0.00000000	      0.00000000	    118.69883061	    -32.72648241	      4.11312730	     91.96873201	      0.00000000	     -9.93790743	      1.60515718	      7.96143743	      0.00000000	      0.00000000
      3.31000000	      9.83804807	    -39.56150592	      6.83741287	     -0.04847399	      0.52869320	     -1.18551574	    127.82511060	    -48.42837393	     18.18591822	     97.55699096	      0.00000000	      9.90623264	      1.70269070	     11.75403560	      0.00000000	      0.00000000	    118.91938120	    -32.72621631	      4.31750492	     92.22947416	      0.00000000	     -9.93802615	      1.60970799	      8.01949946	      0.00000000	      0.00000000
      3.31500000	      9.73399072	    -39.49833796	      6.79025853	     -0.04826742	      0.52704181	     -1.18555711	    128.04679503	    -48.34410439	     18.41890307	     97.80358646	      0.00000000	      9.90646963	      1.70699460	     11.80011615	      0.00000000	      0.00000000	    119.12083369	    -32.81641037	      4.52383373	     92.51054144	      0.00000000	     -9.93823614	      1.61461354	      8.13725749	      0.00000000	      0.00000000
      3.32000000	      9.73033973	    -39.42985463	      6.75874678	     -0.04799213	      0.52536084	     -1.18562524	    128.29164396	    -48.37547097	     18.67092913	     98.06131827	      0.00000000	      9.90698000	      1.71149287	     11.85356103	      0.00000000	      0.00000000	    119.32355308	    -32.79785175	      4.74495376	     92.78980143	      0.00000000	     -9.93834252	      1.61948755	      8.30474740	      0.00000000	      0.00000000
      3.32500000	      9.68661534	    -39.30078388	      6.65040947	     -0.04772322	      0.52380531	     -1.18567235	    128.35445877	    -48.40548805	     18.82058366	     98.28590682	      0.00000000	      9.90739859	      1.71541268	     11.90905169	      0.00000000	      0.00000000	    119.49045488	    -32.77398979	      5.02133980	     93.04565993	      0.00000000	     -9.93853437	      1.62395312	      8.33298661	      0.00000000	      0.00000000
      3.33000000	      9.62563490	    -39.27171591	      6.62789544	     -0.04753707	      0.52214932	     -1.18574632	    128.63438452	    -48.34285896	     19.08060142	     98.52910121	      0.00000000	      9.90779401	      1.71965723	     11.93517673	      0.00000000	      0.00000000	    119.72059901	    -32.81932655	      5.22129615	     93.31825956	      0.00000000	     -9.93869438	      1.62871088	      8.42592992	      0.00000000	      0.00000000
      3.33500000	      9.58501790	    -39.21646844	      6.57656273	     -0.04727172	      0.52047689	     -1.18580847	    128.86271159	    -48.33568690	     19.30912346	     98.77505496	      0.00000000	      9.90814040	      1.72394993	     11.96511732	      0.00000000	      0.00000000	    119.94103224	    -32.83113833	      5.45173952	     93.59595033	      0.00000000	     -9.93886605	      1.63355750	      8.58879571	      0.00000000	      0.00000000
      3.34000000	      9.50277298	    -39.13476732	      6.52971363	     -0.04703027	      0.51883978	     -1.18587103	    129.05271990	    -48.27410442	     19.53754376	     99.01176557	      0.00000000	      9.90863729	      1.72808131	     12.01241623	      0.00000000	      0.00000000	    120.12657930	    -32.88863045	      5.66346811	     93.86452234	      0.00000000	     -9.93905096	      1.63824497	      8.61614497	      0.00000000	      0.00000000
      3.34500000	      9.45246500	    -39.06126355	      6.46300643	     -0.04673210	      0.51720796	     -1.18592763	    129.23252115	    -48.26937976	     19.73818622	     99.25161598	      0.00000000	      9.90911006	      1.73226749	     12.06136127	      0.00000000	      0.00000000	    120.33643714	    -32.91177315	      5.90038933	     94.13574125	      0.00000000	     -9.93925110	      1.64297863	      8.70151328	      0.00000000	      0.00000000
